<?xml version="1.0" encoding="utf-8"?>
<!-- Generator: Adobe Illustrator 19.0.0, SVG Export Plug-In . SVG Version: 6.00 Build 0)  -->
<svg version="1.1" id="Layer_1" xmlns="http://www.w3.org/2000/svg" xmlns:xlink="http://www.w3.org/1999/xlink" x="0px" y="0px"
	 viewBox="0 0 82.4 83" style="enable-background:new 0 0 82.4 83;" xml:space="preserve">
<style type="text/css">
	.st0{clip-path:url(#XMLID_96_);fill:#FFFFFF;}
</style>
<g id="XMLID_93_">
	<defs>
		<rect id="XMLID_94_" x="0" width="82.4" height="83"/>
	</defs>
	<clipPath id="XMLID_96_">
		<use xlink:href="#XMLID_94_"  style="overflow:visible;"/>
	</clipPath>
	<path id="XMLID_109_" class="st0" d="M67.2,57.9l-4.1-4.1h6.3C68.7,55.2,68,56.6,67.2,57.9 M71.9,66.3c0.8,0.8,1.3,1.9,1.3,3
		c0,2.4-1.9,4.3-4.3,4.3c-1.2,0-2.2-0.4-3-1.3l-6.1-6.1l6.1-6.1L71.9,66.3z M57.8,64.5l-2.1-2.1l6.1-6.1l2.1,2.1L57.8,64.5z
		 M47.3,71.7l-6.1-9.9l-6.1,9.9c-9.9-2-18.2-8.8-22.1-18c6.1-0.6,10.9-5.7,10.9-11.9c0-6.2-4.8-11.4-10.9-11.9
		c0.6-1.5,1.3-2.9,2.2-4.2l42.1,42.1C54.3,69.7,50.9,71,47.3,71.7 M49.5,80.3H33l8.3-13.4L49.5,80.3z M5.5,48.4h0.3
		c-0.2-0.1-0.4-0.2-0.5-0.3v0.2c-1.6-1.7-2.7-4-2.7-6.5c0-2.5,1-4.8,2.7-6.5v0c0.1-0.1,0.1-0.1,0.2-0.2h0c1.7-1.6,4-2.7,6.5-2.7
		c2.5,0,4.8,1,6.4,2.6c0.1,0.1,0.2,0.1,0.2,0.3v-0.1c1.6,1.7,2.7,4,2.7,6.5c0,2.5-1,4.8-2.7,6.5V48c-0.1,0.1-0.2,0.2-0.3,0.3
		c0,0,0,0.1,0,0.1h0.2c-1.7,1.6-4,2.7-6.5,2.7S7.1,50.1,5.5,48.4 M11.2,17.8l2.1-2.1L56,58.4l-2.1,2.1L11.2,17.8z M9.3,9.9h6.1
		L9.3,16V9.9z M17.3,11.7L58.5,53v0.8h0.8l0.7,0.7l-2.1,2.1L15.2,13.8L17.3,11.7z M29.7,13.5L41.2,25l11.6-11.6
		c7.4,3,13.4,8.9,16.6,16.3H58.5v19.4L25.1,15.8C26.6,14.9,28.1,14.1,29.7,13.5 M35.9,9.1l4,4v6.9l-7.4-7.4L35.9,9.1z M41.2,3.8
		l3.4,3.4l-3.4,3.4l-3.4-3.4L41.2,3.8z M50,12.5l-7.4,7.4v-6.9l4-4L50,12.5z M79.8,51.1H61.2V32.5h18.6V51.1z M82.4,53.7V29.8H72.2
		c-3.6-9.3-11.3-16.7-20.9-19.7L41.2,0L31.1,10.1c-2.8,0.9-5.5,2.2-7.9,3.8l-6.7-6.7H6.6v9.9l6.7,6.7c-1.2,1.9-2.3,4-3.1,6.2
		C4.4,30.8,0,35.8,0,41.8c0,6,4.4,10.9,10.2,11.8c3.9,10.3,12.8,18,23.5,20.5L28.2,83h26l-5.5-8.9c3.7-0.9,7.3-2.4,10.5-4.5l4.6,4.6
		c1.3,1.3,3.1,2,4.9,2c3.8,0,7-3.1,7-7c0-1.9-0.7-3.6-2-4.9l-4.6-4.6c1.2-1.9,2.2-3.9,3.1-6.1H82.4z"/>
	<path id="XMLID_108_" class="st0" d="M67,39.8c0.1,0,0.2-0.1,0.3-0.1c0.1,0,0.1,0,0.2,0c0.1,0,0.1,0.1,0.2,0.1c0,0,0.1,0.1,0.1,0.2
		c0,0.1,0,0.1,0,0.2c0,0.2-0.1,0.3-0.3,0.5l-3,1.8l3,1.8c0.2,0.1,0.3,0.3,0.3,0.4c0,0.1,0,0.3-0.2,0.4c-0.1,0.1-0.2,0.1-0.4,0.1
		c-0.1,0-0.2,0-0.3-0.1l-3.7-2.2c-0.2-0.1-0.3-0.3-0.3-0.5c0-0.2,0.1-0.3,0.3-0.5L67,39.8z"/>
	<path id="XMLID_107_" class="st0" d="M72.5,38.8l-3.1,7.6c-0.1,0.2-0.3,0.3-0.5,0.3c-0.1,0-0.3-0.1-0.4-0.1s-0.1-0.2-0.1-0.4
		c0-0.1,0-0.1,0-0.2l3.1-7.6c0-0.1,0.1-0.1,0.1-0.2c0.1-0.1,0.2-0.1,0.4-0.1c0.1,0,0.3,0,0.4,0.2c0.1,0.1,0.2,0.2,0.2,0.4
		C72.6,38.7,72.5,38.8,72.5,38.8"/>
	<path id="XMLID_106_" class="st0" d="M77.7,42c0.2,0.1,0.3,0.3,0.3,0.5c0,0.2-0.1,0.3-0.3,0.5L74,45.2c-0.1,0-0.2,0.1-0.3,0.1
		c-0.1,0-0.3,0-0.4-0.1c-0.1-0.1-0.2-0.2-0.2-0.4c0-0.2,0.1-0.3,0.3-0.4l3-1.8l-3-1.8c-0.2-0.1-0.3-0.3-0.3-0.5c0-0.1,0-0.1,0-0.2
		c0-0.1,0.1-0.1,0.1-0.2c0,0,0.1-0.1,0.2-0.1c0.1,0,0.1,0,0.2,0c0.1,0,0.2,0,0.3,0.1L77.7,42z"/>
	<path id="XMLID_100_" class="st0" d="M18.1,41.2C18.1,41.2,18.1,41.2,18.1,41.2c0-0.1-0.1-0.1-0.1-0.2c-0.1-0.7-0.3-1.3-0.7-1.9
		c-1-1.5-2.6-2.4-4.3-2.4c0,0,0,0,0,0c-1.4,0-2.7,0.6-3.7,1.6c-0.2,0.2-0.3,0.2-0.5,0.2c0,0-0.1,0-0.1,0c-0.1,0-0.2,0-0.3,0
		c-1.2,0-2.3,0.5-3.1,1.4c-0.8,0.9-1.1,2.1-1,3.4c0.3,1.9,1.9,3.5,3.8,3.5c1,0,1.9,0.1,2.8,0.1c0.8,0,1.6,0,2.3-0.1
		c2.3-0.1,4-1.5,4.6-3.8c0-0.2,0.1-0.4,0.1-0.5c0-0.1,0-0.2,0.1-0.2l0,0L18.1,41.2L18.1,41.2z M13.8,45.9c-0.3,0.1-0.6,0.1-0.8,0.1
		c-1.1,0-2-0.4-2.8-1.2c-0.6-0.6-1.2-1.2-1.8-1.8c-0.2-0.2-0.2-0.4,0-0.6c0.1-0.1,0.2-0.1,0.3-0.1c0.1,0,0.2,0.1,0.3,0.2
		c0.6,0.6,1.1,1.2,1.7,1.7c0.7,0.7,1.5,1,2.4,1c0.3,0,0.7,0,1-0.1c1.3-0.3,2-1.2,2.4-2.4c0.4-1.4-0.2-2.9-1.4-3.7
		c-0.6-0.4-1.2-0.6-1.9-0.6c-0.7,0-1.5,0.2-2.1,0.7c-0.2,0.1-0.3,0.2-0.4,0.2c-0.1,0-0.3-0.1-0.6-0.3c0.6-0.7,1.4-1.1,2.3-1.3
		c0.3,0,0.5-0.1,0.8-0.1c2.1,0,3.7,1.6,4.1,3.4C17.5,43.2,16.1,45.4,13.8,45.9z M8.8,45.9c-0.3,0-0.6,0-0.9,0
		c-1.6-0.2-2.8-1.7-2.7-3.3c0.1-1.9,1.7-3.1,3.2-3.1c0,0,0,0,0,0c1,0,1.9,0.4,2.6,1.1c0.4,0.5,0.9,1,1.3,1.4
		c0.1,0.2,0.2,0.3,0.1,0.5c-0.1,0.1-0.2,0.2-0.3,0.2c-0.1,0-0.2-0.1-0.3-0.2c-0.5-0.5-0.9-1-1.4-1.5c-0.5-0.6-1.2-0.9-1.9-0.9
		c-0.2,0-0.3,0-0.5,0c-1.3,0.2-2.1,1.4-2,2.7c0.1,1.2,1.2,2.2,2.4,2.3c0.1,0,0.2,0,0.2,0c0,0,0.1,0,0.1,0c0.1,0,0.2,0,0.3,0
		c0.5,0,0.9,0.4,1.3,0.7C9.8,45.9,9.3,45.9,8.8,45.9z"/>
</g>
</svg>
