<?xml version="1.0" encoding="utf-8"?>
<!-- Generator: Adobe Illustrator 19.0.0, SVG Export Plug-In . SVG Version: 6.00 Build 0)  -->
<svg version="1.1" id="Layer_1" xmlns="http://www.w3.org/2000/svg" xmlns:xlink="http://www.w3.org/1999/xlink" x="0px" y="0px"
	 viewBox="0 0 104 103" style="enable-background:new 0 0 104 103;" xml:space="preserve">
<style type="text/css">
	
		.st0{clip-path:url(#XMLID_113_);fill:none;stroke:#FFFFFF;stroke-width:3;stroke-linecap:round;stroke-linejoin:round;stroke-miterlimit:10;}
</style>
<g id="XMLID_94_">
	<defs>
		<rect id="XMLID_97_" x="15.2" y="16.2" width="73.5" height="73"/>
	</defs>
	<clipPath id="XMLID_113_">
		<use xlink:href="#XMLID_97_"  style="overflow:visible;"/>
	</clipPath>
	<path id="XMLID_99_" class="st0" d="M63.1,87.7H40.7c-0.9,0-1.7-0.8-1.7-1.7v-5.8c0-0.9,0.8-1.7,1.7-1.7h22.4
		c0.9,0,1.7,0.8,1.7,1.7V86C64.8,86.9,64,87.7,63.1,87.7z M60.6,78.4l5.8-9.9c0,0,2.2-5.6-1.7-11.7L51.9,36.2 M42.9,78l-5.4-9.1
		c0,0-3-4.8,0.7-11.7l13.6-21.5v21.5 M82.7,52.9c0,0,0-24-25.4-30.2 M21.8,52.9c0,0,0-24,25.4-30.2 M56.2,61.5
		c0,2.4-1.9,4.3-4.3,4.3c-2.4,0-4.3-1.9-4.3-4.3c0-2.4,1.9-4.3,4.3-4.3C54.3,57.2,56.2,59.1,56.2,61.5z M87.3,22.8
		c0,2.8-2.3,5.1-5.1,5.1s-5.1-2.3-5.1-5.1c0-2.8,2.3-5.1,5.1-5.1S87.3,20,87.3,22.8z M26.9,22.8c0,2.8-2.3,5.1-5.1,5.1
		c-2.8,0-5.1-2.3-5.1-5.1c0-2.8,2.3-5.1,5.1-5.1C24.6,17.7,26.9,20,26.9,22.8z M26.9,22.8h50.8"/>
</g>
</svg>
